<?xml version="1.0" encoding="UTF-8" standalone="no"?>
<!-- Created with Inkscape (http://www.inkscape.org/) -->

<svg
   version="1.1"
   id="svg1"
   width="960"
   height="569"
   viewBox="0 0 960 569"
   sodipodi:docname="bianconiglio logo.svg"
   inkscape:version="1.4.2 (f4327f4, 2025-05-13)"
   xmlns:inkscape="http://www.inkscape.org/namespaces/inkscape"
   xmlns:sodipodi="http://sodipodi.sourceforge.net/DTD/sodipodi-0.dtd"
   xmlns:xlink="http://www.w3.org/1999/xlink"
   xmlns="http://www.w3.org/2000/svg"
   xmlns:svg="http://www.w3.org/2000/svg">
  <defs
     id="defs1">
    <linearGradient
       id="swatch28"
       inkscape:swatch="solid">
      <stop
         style="stop-color:#d22848;stop-opacity:1;"
         offset="0"
         id="stop28" />
    </linearGradient>
    <clipPath
       clipPathUnits="userSpaceOnUse"
       id="clipPath4">
      <use
         x="0"
         y="0"
         xlink:href="#g3"
         id="use4" />
    </clipPath>
  </defs>
  <sodipodi:namedview
     id="namedview1"
     pagecolor="#505050"
     bordercolor="#eeeeee"
     borderopacity="1"
     inkscape:showpageshadow="0"
     inkscape:pageopacity="0"
     inkscape:pagecheckerboard="0"
     inkscape:deskcolor="#505050"
     inkscape:zoom="0.37390158"
     inkscape:cx="1345.2738"
     inkscape:cy="533.56287"
     inkscape:window-width="1920"
     inkscape:window-height="1111"
     inkscape:window-x="-9"
     inkscape:window-y="-9"
     inkscape:window-maximized="1"
     inkscape:current-layer="g1" />
  <g
     inkscape:groupmode="layer"
     inkscape:label="Image"
     id="g1">
    <g
       id="g4"
       clip-path="url(#clipPath4)"
       style="fill:#ffffff;fill-opacity:1"
       transform="translate(-9.3607521,-43.460635)">
      <g
         inkscape:label="Clip"
         id="g3"
         style="fill:#ffffff;fill-opacity:1" />
    </g>
    <path
       style="fill:#de234a;fill-opacity:1;stroke:#d22848;stroke-width:0.0417891;stroke-opacity:1"
       d=""
       id="path20" />
    <path
       style="fill:#de234a;fill-opacity:1;stroke:#d22848;stroke-width:0.0417891;stroke-opacity:1"
       d=""
       id="path23" />
    <path
       style="fill:#ffffff;fill-opacity:1;stroke:#000000;stroke-width:0;stroke-dasharray:none;stroke-opacity:1"
       d=""
       id="path47" />
    <path
       d="m 272.64413,440.52132 c 0.36261,-0.94495 1.89396,-1.5 4.13837,-1.5 2.24442,0 3.77577,0.55505 4.13838,1.5 0.31658,0.825 1.65246,1.5 2.96861,1.5 1.31616,0 2.39605,-0.3375 2.39977,-0.75 0.004,-0.4125 -1.87737,-4.9125 -4.18019,-10 -2.30282,-5.0875 -4.69977,-9.25 -5.32657,-9.25 -0.62679,0 -3.02375,4.1625 -5.32656,9.25 -2.30282,5.0875 -4.1839,9.5875 -4.18019,10 0.004,0.4125 1.08361,0.75 2.39976,0.75 1.31616,0 2.65204,-0.675 2.96862,-1.5 z m 3.03138,-7.08179 c 0.33385,-0.86998 0.61388,-1.88248 0.62231,-2.25 0.008,-0.36752 0.45153,0.007 0.98468,0.83179 0.53316,0.825 0.97627,1.8375 0.98469,2.25 0.008,0.4125 -0.70783,0.75 -1.59168,0.75 -1.05452,0 -1.39831,-0.54381 -1,-1.58179 z m 18.60699,5.58179 c 0,-1.88267 0.51348,-3 1.37868,-3 0.75828,0 1.93787,1.35 2.62132,3 0.97373,2.35079 1.8656,3 4.12132,3 1.58328,0 2.87868,-0.34987 2.87868,-0.7775 0,-0.42762 -0.72882,-1.81803 -1.6196,-3.08979 -1.29327,-1.84641 -1.39401,-2.80741 -0.5,-4.76956 0.61578,-1.35149 1.1196,-3.52842 1.1196,-4.83762 0,-1.38048 -1.10678,-3.25097 -2.63486,-4.45295 -1.84555,-1.45172 -4.09226,-2.07258 -7.5,-2.07258 h -4.86514 v 10 10 h 2.5 c 2.11111,0 2.5,-0.46667 2.5,-3 z m 0.66667,-7.66667 c -0.36667,-0.36666 -0.66667,-1.49166 -0.66667,-2.5 0,-1.17611 0.72823,-1.83333 2.03139,-1.83333 1.11726,0 2.30783,0.72041 2.64571,1.60092 0.33789,0.88051 -0.0137,1.99862 -0.78138,2.48469 -0.76764,0.48607 -1.65822,0.89065 -1.97905,0.89908 -0.32083,0.008 -0.88333,-0.28469 -1.25,-0.65136 z m 33.02721,9.02203 c 0.31092,-0.81024 2.04282,-1.35536 4.30612,-1.35536 2.44287,0 3.99023,0.53215 4.36163,1.5 0.31658,0.825 1.71473,1.5 3.10699,1.5 1.39226,0 2.53138,-0.15927 2.53138,-0.35393 0,-0.19466 -2.02843,-4.69466 -4.50763,-10 -2.4792,-5.30534 -4.98034,-9.64607 -5.55808,-9.64607 -0.57775,0 -2.89521,4.05 -5.14992,9 -2.2547,4.95 -4.47857,9 -4.94192,9 -0.46334,0 -0.72995,-0.5625 -0.59245,-1.25 0.1569,-0.78447 -1.16772,-1.36685 -3.55673,-1.56375 l -3.80673,-0.31375 3.55673,-6.47067 c 1.9562,-3.55887 3.55673,-6.90519 3.55673,-7.43625 0,-0.53107 -3.15,-0.96558 -7,-0.96558 -6.8,0 -7,0.0714 -7,2.5 0,2.11111 0.46667,2.5 3,2.5 1.65,0 3,0.29425 3,0.6539 0,0.35964 -1.575,3.47026 -3.5,6.91248 -1.925,3.44223 -3.5,6.53449 -3.5,6.87171 0,0.33722 4.7641,0.53652 10.58689,0.44288 7.86364,-0.12645 10.72067,-0.51888 11.10699,-1.52561 z m 3.30612,-6.85536 c 0,-0.825 0.45,-1.5 1,-1.5 0.55,0 1,0.675 1,1.5 0,0.825 -0.45,1.5 -1,1.5 -0.55,0 -1,-0.675 -1,-1.5 z m 27.92328,5.9111 c 1.6922,-1.42389 3.07672,-3.22389 3.07672,-4 0,-0.82168 -0.99955,-1.4111 -2.39301,-1.4111 -1.31615,0 -2.65203,0.675 -2.96861,1.5 -0.31659,0.825 -1.60223,1.49311 -2.85699,1.48469 -1.25476,-0.008 -2.76421,-0.34593 -3.35433,-0.75 -0.59012,-0.40408 -1.36499,-1.5261 -1.72195,-2.49338 -0.35695,-0.96727 -0.22276,-2.87977 0.29819,-4.25 0.72133,-1.89722 1.6685,-2.49131 3.97195,-2.49131 1.66361,0 3.02475,0.41967 3.02475,0.93261 0,0.51294 0.9453,1.23264 2.10067,1.59934 1.16817,0.37076 2.61085,0.14905 3.25,-0.49948 0.86909,-0.88185 0.35305,-1.88138 -2.11644,-4.09934 -1.79618,-1.61322 -4.36251,-2.93313 -5.70295,-2.93313 -1.34044,0 -3.61709,0.53761 -5.05922,1.19468 -1.44213,0.65708 -3.2633,2.43473 -4.04705,3.95034 -0.78376,1.51561 -1.40906,3.79051 -1.38957,5.05532 0.0195,1.26481 0.63152,3.37513 1.36007,4.68959 0.72855,1.31446 2.4001,2.98601 3.71456,3.71456 1.31446,0.72855 3.59291,1.34058 5.06321,1.36007 1.4703,0.0195 4.0578,-1.12956 5.75,-2.55346 z m 12.07672,-1.4111 c 0,-3.77778 0.16667,-4 3,-4 2.83334,0 3,0.22222 3,4 0,3.61523 0.24397,4 2.53621,4 h 2.53622 l -0.28622,-9.75 c -0.27151,-9.24932 -0.40175,-9.76641 -2.53621,-10.06955 -1.97279,-0.28018 -2.25,0.12023 -2.25,3.25 0,3.2995 -0.22696,3.56955 -3,3.56955 -2.7619,0 -3,-0.27778 -3,-3.5 0,-3.06667 -0.30952,-3.5 -2.5,-3.5 h -2.5 v 10 10 h 2.5 c 2.25,0 2.5,-0.4 2.5,-4 z m 28,1.56036 c 0,-2.06547 -0.53998,-2.48723 -3.52089,-2.75 -1.93649,-0.1707 -3.62399,-0.76036 -3.75,-1.31036 -0.12601,-0.55 1.23339,-1.14101 3.02089,-1.31336 2.44002,-0.23526 3.25,-0.79602 3.25,-2.25 0,-1.48516 -0.69938,-1.93664 -3,-1.93664 -1.94119,0 -3,-0.50704 -3,-1.43664 0,-0.88988 1.2369,-1.5559 3.25,-1.75 2.47888,-0.23901 3.25,-0.7879 3.25,-2.31336 0,-1.73335 -0.76663,-2.03999 -5.75,-2.29991 l -5.75,-0.2999 v 10.0499 10.04991 h 6 c 5.69375,0 6,-0.12453 6,-2.43964 z m 9.19521,-2.31036 0.30479,-4.75 5.10371,4.75 c 2.80704,2.6125 5.41083,4.75 5.78621,4.75 0.37538,0 0.55371,-4.3875 0.39629,-9.75 -0.27151,-9.24932 -0.40175,-9.76641 -2.53621,-10.06955 -2.05169,-0.29139 -2.25,0.0832 -2.25,4.25 0,2.51325 -0.3563,4.56955 -0.79179,4.56955 -0.43548,0 -2.77918,-2.025 -5.20821,-4.5 -2.42903,-2.475 -4.77272,-4.5 -5.20821,-4.5 -0.43548,0 -0.79179,4.5 -0.79179,10 0,9.94025 0.0146,10 2.44521,10 2.20765,0 2.47482,-0.46148 2.75,-4.75 z m 19.16642,3.25 c 0.35588,-0.92742 1.87686,-1.5 3.98454,-1.5 1.87492,0 3.96914,0.675 4.65383,1.5 0.68469,0.825 2.08979,1.5 3.12245,1.5 1.03265,0 1.87755,-0.55529 1.87755,-1.23398 0,-0.67869 -1.87462,-5.17869 -4.16583,-10 -2.2912,-4.82131 -4.57192,-8.76602 -5.06826,-8.76602 -0.49633,0 -2.89671,4.26765 -5.33417,9.48366 -2.43745,5.21602 -4.43174,9.71602 -4.43174,10 0,0.28399 1.07686,0.51634 2.39301,0.51634 1.31616,0 2.65204,-0.675 2.96862,-1.5 z m 3.37394,-6.09777 c -0.32877,-0.32877 -0.35662,-1.22618 -0.0619,-1.99425 0.29473,-0.76807 0.93873,-1.14752 1.4311,-0.84322 0.49237,0.3043 0.89521,1.20171 0.89521,1.99426 0,0.79254 -0.375,1.44098 -0.83333,1.44098 -0.45833,0 -1.10233,-0.269 -1.4311,-0.59777 z m 52.18771,5.00887 c 1.6922,-1.42389 3.07672,-3.22389 3.07672,-4 0,-0.84317 -1.0188,-1.4111 -2.53138,-1.4111 -1.39226,0 -2.79041,0.675 -3.10699,1.5 -0.31658,0.825 -1.62032,1.5 -2.89719,1.5 -1.27687,0 -3.02872,-0.70714 -3.89301,-1.57143 -0.86428,-0.86429 -1.57143,-2.40714 -1.57143,-3.42857 0,-1.02143 0.70715,-2.56429 1.57143,-3.42857 0.86429,-0.86429 2.60919,-1.57143 3.87756,-1.57143 1.26837,0 2.86632,0.675 3.55101,1.5 0.68469,0.825 2.08979,1.5 3.12245,1.5 1.03265,0 1.86324,-0.5625 1.84575,-1.25 -0.0175,-0.6875 -0.57999,-1.964 -1.25,-2.83666 -0.67001,-0.87266 -2.20111,-2.11016 -3.40246,-2.75 -1.20134,-0.63984 -3.09266,-1.16334 -4.20294,-1.16334 -1.11028,0 -3.19861,0.53761 -4.64074,1.19468 -1.44213,0.65708 -3.2633,2.43473 -4.04705,3.95034 -0.78376,1.51561 -1.40906,3.79051 -1.38957,5.05532 0.0195,1.26481 0.63152,3.37513 1.36007,4.68959 0.72855,1.31446 2.4001,2.98601 3.71456,3.71456 1.31446,0.72855 3.59291,1.34058 5.06321,1.36007 1.4703,0.0195 4.0578,-1.12956 5.75,-2.55346 z m 9.7151,1.0889 c 0.37139,-0.96785 1.91876,-1.5 4.36162,-1.5 2.44287,0 3.99023,0.53215 4.36163,1.5 0.31658,0.825 1.71473,1.5 3.10699,1.5 1.39226,0 2.53138,-0.23235 2.53138,-0.51634 0,-0.28398 -1.99428,-4.78398 -4.43174,-10 -2.43745,-5.21601 -4.91622,-9.48366 -5.50838,-9.48366 -0.59215,0 -2.87286,3.88793 -5.06826,8.63985 -2.19539,4.75191 -3.99162,9.25191 -3.99162,10 0,0.74808 0.91413,1.36015 2.03139,1.36015 1.11726,0 2.2904,-0.675 2.60699,-1.5 z m 3.36162,-7 c 0,-0.825 0.45,-1.5 1,-1.5 0.55,0 1,0.675 1,1.5 0,0.825 -0.45,1.5 -1,1.5 -0.55,0 -1,-0.675 -1,-1.5 z m 18,4 c 0,-2.475 0.35631,-4.5 0.79179,-4.5 0.43549,0 2.77918,2.025 5.20821,4.5 2.42903,2.475 4.78902,4.5 5.24442,4.5 0.4554,0 0.69921,-4.3875 0.54179,-9.75 -0.27151,-9.24932 -0.40175,-9.76641 -2.53621,-10.06955 -2.05169,-0.29139 -2.25,0.0832 -2.25,4.25 0,2.51325 -0.3563,4.56955 -0.79179,4.56955 -0.43548,0 -2.77918,-2.025 -5.20821,-4.5 -2.42903,-2.475 -4.77272,-4.5 -5.20821,-4.5 -0.43548,0 -0.79179,4.5 -0.79179,10 v 10 h 2.5 c 2.2963,0 2.5,-0.36667 2.5,-4.5 z m 22,-0.21241 v -4.71241 l 4.78435,4.71241 c 2.63139,2.59182 5.10639,4.71241 5.5,4.71241 0.39361,0 0.71565,-4.5 0.71565,-10 v -10 h -2.5 c -2.31299,0 -2.5,0.3525 -2.5,4.71241 v 4.7124 l -4.78435,-4.7124 c -2.63139,-2.59183 -5.10639,-4.71241 -5.5,-4.71241 -0.3936,0 -0.71565,4.5 -0.71565,10 v 10 h 2.5 c 2.31299,0 2.5,-0.35251 2.5,-4.71241 z m 24,2.21241 c 0,-1.375 -0.45,-2.5 -1,-2.5 -0.55,0 -1,-2.25 -1,-5 0,-2.75 0.45,-5 1,-5 0.55,0 1,-1.125 1,-2.5 0,-2.2963 -0.36666,-2.5 -4.5,-2.5 -4.13333,0 -4.5,0.2037 -4.5,2.5 0,1.375 0.45,2.5 1,2.5 0.55,0 1,2.08789 1,4.63976 0,3.17162 -0.52605,5.02441 -1.66248,5.85539 -0.98476,0.72008 -1.40521,1.88606 -1.03138,2.86024 0.45716,1.19134 1.87999,1.64461 5.16248,1.64461 4.16681,0 4.53138,-0.20114 4.53138,-2.5 z m 16.31574,1.33666 c 1.20135,-0.63984 2.73245,-1.87734 3.40246,-2.75 0.67001,-0.87267 1.23251,-2.82416 1.25,-4.33666 0.03,-2.59731 -0.21806,-2.75 -4.4682,-2.75 -3.83333,0 -4.5,0.29629 -4.5,2 0,1.11111 0.66667,2 1.5,2 0.825,0 1.5,0.45 1.5,1 0,0.55 -1.11462,1 -2.47694,1 -1.47245,0 -3.08078,-0.92156 -3.9659,-2.27242 -0.83272,-1.2709 -1.23095,-3.259 -0.90356,-4.51094 0.33896,-1.29619 1.65102,-2.50598 3.11682,-2.87387 1.3923,-0.34944 3.35742,-0.11952 4.36694,0.51094 1.00953,0.63046 2.74161,1.14629 3.84907,1.14629 1.10747,0 1.99926,-0.3375 1.98177,-0.75 -0.0175,-0.4125 -0.57999,-1.464 -1.25,-2.33666 -0.67001,-0.87266 -2.20111,-2.11016 -3.40246,-2.75 -1.20134,-0.63984 -3.13619,-1.16334 -4.29966,-1.16334 -1.16347,0 -3.37967,0.65378 -4.92488,1.45284 -1.54522,0.79906 -3.38712,2.84737 -4.09312,4.55179 -1.00973,2.43771 -1.03204,3.93864 -0.10458,7.03422 0.75453,2.51842 2.15609,4.46558 3.89277,5.40818 1.49255,0.81009 3.75582,1.49091 5.02947,1.51293 1.27366,0.022 3.29866,-0.48347 4.5,-1.1233 z m 16.68426,-1.33666 c 0,-1.375 -0.45,-2.5 -1,-2.5 -0.55,0 -1,-2.25 -1,-5 0,-2.75 0.45,-5 1,-5 0.55,0 1,-1.125 1,-2.5 0,-2.2963 -0.36666,-2.5 -4.5,-2.5 -4.13333,0 -4.5,0.2037 -4.5,2.5 0,1.375 0.45,2.5 1,2.5 0.55,0 1,2.08789 1,4.63976 0,3.17162 -0.52605,5.02441 -1.66248,5.85539 -0.98476,0.72008 -1.40521,1.88606 -1.03138,2.86024 0.45716,1.19134 1.87999,1.64461 5.16248,1.64461 4.16681,0 4.53138,-0.20114 4.53138,-2.5 z m 17.05539,1.47035 c 1.05815,-0.5663 2.60357,-2.34395 3.43426,-3.95034 0.83069,-1.60638 1.50867,-3.95554 1.50661,-5.22035 -0.002,-1.26481 -0.88059,-3.73774 -1.9523,-5.4954 -1.39053,-2.28054 -2.96933,-3.38724 -5.51293,-3.86442 -2.12739,-0.3991 -4.7861,-0.16261 -6.59485,0.5866 -1.66677,0.69039 -3.68427,2.51954 -4.48334,4.06475 -0.79906,1.54522 -1.45284,3.76142 -1.45284,4.92489 0,1.16347 0.50267,3.09832 1.11704,4.29966 0.61437,1.20134 2.07687,2.96175 3.25,3.91202 1.17313,0.95027 3.62505,1.73777 5.4487,1.75 1.82366,0.0122 4.1815,-0.4411 5.23965,-1.00741 z m -7.67061,-4.73566 c -0.61337,-0.40408 -1.41128,-1.68447 -1.77315,-2.84532 -0.42434,-1.36127 4.6e-4,-2.92371 1.1965,-4.40075 1.43577,-1.7731 2.4535,-2.13977 4.50793,-1.62415 1.66041,0.41674 2.87813,1.56106 3.25374,3.05762 0.33015,1.31539 0.0962,3.33354 -0.51995,4.48477 -0.62487,1.16757 -2.09959,2.08637 -3.33503,2.07783 -1.21815,-0.008 -2.71667,-0.34593 -3.33004,-0.75 z m 21.61522,1.0529 v -4.71241 l 4.78435,4.71241 c 2.63139,2.59182 5.10639,4.71241 5.5,4.71241 0.39361,0 0.71565,-4.5 0.71565,-10 v -10 h -2.5 c -2.31299,0 -2.5,0.3525 -2.5,4.71241 v 4.7124 l -4.78435,-4.7124 c -2.63139,-2.59183 -5.10639,-4.71241 -5.5,-4.71241 -0.3936,0 -0.71565,4.5 -0.71565,10 v 10 h 2.5 c 2.31299,0 2.5,-0.35251 2.5,-4.71241 z m 28,2.21241 c 0,-2.19048 -0.43333,-2.5 -3.5,-2.5 -2.44444,0 -3.5,-0.45238 -3.5,-1.5 0,-1.00755 1.00773,-1.5 3.06955,-1.5 2.60562,0 3.02126,-0.33773 2.75,-2.23455 -0.229,-1.60134 -1.00312,-2.23892 -2.73184,-2.25 -1.32675,-0.008 -2.60175,-0.57795 -2.83333,-1.26545 -0.28489,-0.84578 0.73773,-1.25 3.16229,-1.25 3.15555,0 3.58333,-0.29845 3.58333,-2.5 0,-2.38889 -0.26666,-2.5 -6,-2.5 h -6 v 10 10 h 6 c 5.73334,0 6,-0.11111 6,-2.5 z m -195,-5.5 c 0,-0.55 -1.575,-1 -3.5,-1 -1.925,0 -3.5,0.45 -3.5,1 0,0.55 1.575,1 3.5,1 1.925,0 3.5,-0.45 3.5,-1 z M 311.87172,375.27494 c 0.55593,-3.70721 0.88237,-4.30929 1.49099,-2.75 0.42857,1.09801 0.81085,3.23388 0.84951,4.74638 0.0442,1.73041 0.61936,2.75 1.55123,2.75 0.81452,0 1.70255,-1.0125 1.9734,-2.25 0.27085,-1.2375 0.95443,-4.92015 1.51906,-8.18366 0.56462,-3.26351 1.02659,-6.75101 1.02659,-7.75 0,-0.99899 -0.6239,-1.81634 -1.38645,-1.81634 -0.875,0 -1.68176,1.75225 -2.18697,4.75 -0.5685,3.37337 -0.89991,4.02546 -1.14349,2.25 -0.18865,-1.375 -0.56309,-3.5125 -0.83209,-4.75 -0.26901,-1.2375 -1.13514,-2.25 -1.92474,-2.25 -0.88078,0 -1.67804,1.44931 -2.06284,3.75 -0.34496,2.0625 -0.75626,4.2 -0.91401,4.75 -0.15774,0.55 -0.62198,-1.1375 -1.03165,-3.75 -0.50563,-3.22451 -1.22658,-4.75 -2.24484,-4.75 -1.2146,0 -1.37557,0.90377 -0.84599,4.75 0.35971,2.6125 1.1177,7.1125 1.68444,10 0.64226,3.27231 1.54569,5.25 2.39826,5.25 0.86501,0 1.62947,-1.74479 2.07959,-4.74638 z m 19.41078,-5.25362 c 0,-8.22222 -0.26666,-10 -1.5,-10 -1.23333,0 -1.5,1.77778 -1.5,10 0,8.22222 0.26667,10 1.5,10 1.23334,0 1.5,-1.77778 1.5,-10 z m 10.2001,4.25 0.2999,-5.75 1.93262,5.75 c 1.40554,4.18179 2.42828,5.75 3.75,5.75 1.63535,0 1.81738,-1.00162 1.81738,-10 0,-8.22222 -0.26666,-10 -1.5,-10 -1.16352,0 -1.52063,1.40198 -1.59196,6.25 l -0.0919,6.25 -2.10059,-6.25 c -1.54153,-4.58662 -2.58162,-6.25 -3.90804,-6.25 -1.62278,0 -1.80746,1.02176 -1.80746,10 0,8.06927 0.27998,10 1.4501,10 1.0639,0 1.52997,-1.53138 1.75,-5.75 z m 23.7999,4.25 c 0,-1.00722 -1.00738,-1.5 -3.06642,-1.5 -2.75523,0 -3.03431,-0.27908 -2.75,-2.75 0.22229,-1.93188 0.88581,-2.75 2.23033,-2.75 1.05266,0 2.10266,-0.5625 2.33334,-1.25 0.23068,-0.6875 -0.0681,-1.30625 -0.66391,-1.375 -0.59584,-0.0687 -1.64584,-0.18125 -2.33334,-0.25 -0.6875,-0.0687 -1.39239,-1.3625 -1.56642,-2.875 -0.28431,-2.47092 -0.005,-2.75 2.75,-2.75 2.05904,0 3.06642,-0.49278 3.06642,-1.5 0,-1.11111 -1.16666,-1.5 -4.5,-1.5 h -4.5 v 10 10 h 4.5 c 3.33334,0 4.5,-0.38889 4.5,-1.5 z m 23.21407,-1.07049 c 0.83684,-1.83666 0.87586,-3.35293 0.13667,-5.31126 -0.62223,-1.64848 -0.69067,-3.67029 -0.17173,-5.07313 0.60218,-1.62784 0.39643,-3.04415 -0.68116,-4.68874 -1.13178,-1.72733 -2.47215,-2.35638 -5.0209,-2.35638 h -3.47695 v 10 10 h 4.02144 c 3.34852,0 4.21742,-0.43013 5.19263,-2.57049 z m -6.21407,-3.42951 c 0,-1.8976 0.51189,-3 1.39301,-3 0.76616,0 1.65204,0.675 1.96862,1.5 0.31658,0.825 0.31658,2.175 0,3 -0.31658,0.825 -1.20246,1.5 -1.96862,1.5 -0.88112,0 -1.39301,-1.10241 -1.39301,-3 z m 0,-8.5 c 0,-1.55556 0.56667,-2.5 1.5,-2.5 0.93334,0 1.5,0.94444 1.5,2.5 0,1.55555 -0.56666,2.5 -1.5,2.5 -0.93333,0 -1.5,-0.94445 -1.5,-2.5 z m 17.40179,12.03529 c 0.3925,-1.56385 1.1271,-2.26957 2.00986,-1.93082 0.7652,0.29363 1.61848,1.40275 1.89619,2.4647 0.27771,1.06196 1.15973,1.93083 1.96005,1.93083 1.26756,0 1.2776,-1.12785 0.0779,-8.75 -0.75747,-4.8125 -1.58102,-9.3125 -1.83012,-10 -0.24909,-0.6875 -1.36702,-1.25 -2.48428,-1.25 -1.11726,0 -2.032,0.1125 -2.03275,0.25 -7.6e-4,0.1375 -0.67514,4.075 -1.49864,8.75 -0.82349,4.675 -1.49788,9.0625 -1.49863,9.75 -7.5e-4,0.6875 0.62485,1.25 1.39022,1.25 0.76538,0 1.66997,-1.10912 2.0102,-2.46471 z m 0.6685,-6.28529 c 0.0386,-0.9625 0.45703,-2.65 0.92971,-3.75 0.68943,-1.60437 0.87334,-1.2582 0.92972,1.75 0.0386,2.0625 -0.37972,3.75 -0.92972,3.75 -0.55,0 -0.96837,-0.7875 -0.92971,-1.75 z m 16.92971,5.30902 c 0,-1.89255 0.42805,-3.70553 0.95121,-4.02887 0.52317,-0.32333 1.4944,1.22511 2.15829,3.44098 0.66389,2.21588 1.83124,4.02887 2.5941,4.02887 1.06196,0 1.22114,-0.87888 0.67921,-3.75 -0.38929,-2.0625 -0.63409,-4.2 -0.54398,-4.75 0.0901,-0.55 0.43819,-2.6937 0.77352,-4.76377 0.38263,-2.36213 0.15033,-4.31726 -0.62378,-5.25 -0.70326,-0.84738 -2.90022,-1.48623 -5.11101,-1.48623 h -3.87756 v 10 c 0,8.22222 0.26667,10 1.5,10 1.04272,0 1.5,-1.049 1.5,-3.44098 z m 0,-10.55902 c 0,-2.33333 0.44445,-3 2,-3 1.55556,0 2,0.66667 2,3 0,2.33333 -0.44444,3 -2,3 -1.55555,0 -2,-0.66667 -2,-3 z m 32.99963,12.33333 c 2.1e-4,-0.64166 -0.4777,-1.32602 -1.06202,-1.5208 -0.73866,-0.24622 -0.75031,-1.17497 -0.0382,-3.04793 0.70026,-1.84181 0.69895,-2.8948 -0.004,-3.32934 -0.56558,-0.34954 -1.61636,0.16865 -2.33507,1.15154 -1.22876,1.68043 -1.34953,1.65229 -2.0236,-0.47152 -0.47417,-1.49397 -0.17852,-2.85346 0.87328,-4.01569 0.87457,-0.96639 1.59013,-2.67904 1.59013,-3.80589 0,-1.12685 -0.66915,-2.60416 -1.48701,-3.28292 -0.8624,-0.71573 -2.55786,-0.96535 -4.03636,-0.59427 -2.38649,0.59897 -2.53917,1.00534 -2.39014,6.36167 0.0876,3.147 -0.17403,6.9619 -0.58131,8.47756 -0.46256,1.72133 -0.28841,3.30052 0.46395,4.20705 0.80492,0.96988 2.83417,1.38263 6.1173,1.24426 2.95788,-0.12466 4.91298,-0.6713 4.9132,-1.37372 z m -8.31629,-0.98333 c -0.37584,-0.37583 -0.68334,-1.50833 -0.68334,-2.51667 0,-1.00833 0.40186,-1.83333 0.89301,-1.83333 0.49116,0 1.18091,0.75025 1.53279,1.66722 0.35187,0.91697 0.25752,2.04947 -0.20968,2.51666 -0.4672,0.4672 -1.15695,0.54195 -1.53278,0.16612 z m -0.27901,-12.73873 c -0.31986,-0.83352 -0.29012,-1.98705 0.0661,-2.56338 0.35619,-0.57634 1.07107,-1.04789 1.58861,-1.04789 0.51754,0 0.94098,0.87344 0.94098,1.94098 0,1.06754 -0.45318,2.22106 -1.00706,2.56338 -0.55388,0.34232 -1.26876,-0.0596 -1.58861,-0.89309 z m 30.59567,13.95515 c 0,-0.82053 -1.176,-1.56889 -2.75,-1.75 -2.72417,-0.31345 -2.75132,-0.38975 -2.891,-8.12409 -0.0776,-4.29421 -0.38511,-8.05178 -0.68347,-8.35013 -0.29835,-0.29836 -1.03383,-0.2388 -1.63438,0.13237 -0.67156,0.41504 -1.03937,4.01454 -0.95543,9.35013 0.0751,4.77141 0.33804,9.0128 0.5844,9.4253 0.24635,0.4125 2.22136,0.75 4.3889,0.75 2.75527,0 3.94098,-0.43132 3.94098,-1.43358 z m 15.38548,-0.81642 c 0.78737,-1.2375 1.4645,-4.275 1.50473,-6.75 0.0402,-2.475 -0.17946,-5.73793 -0.48819,-7.25094 -0.36684,-1.79777 -1.37496,-2.95515 -2.90951,-3.3403 -1.29149,-0.32414 -3.28064,-0.29339 -4.42034,0.0683 -1.87516,0.59516 -2.07217,1.44036 -2.07217,8.8903 0,5.06981 0.46102,8.69362 1.2,9.43261 0.66,0.66 2.22463,1.2 3.47695,1.2 1.27044,0 2.90977,-0.9946 3.70853,-2.25 z m -5.38548,-7.75 c 0,-5.55556 0.30953,-7 1.5,-7 1.19048,0 1.5,1.44444 1.5,7 0,5.55555 -0.30952,7 -1.5,7 -1.19047,0 -1.5,-1.44445 -1.5,-7 z m 21.72524,9.19097 c 0.67388,-0.42812 1.34888,-1.86528 1.5,-3.1937 0.18622,-1.637 -0.28915,-2.53269 -1.47524,-2.77961 -1.2211,-0.25421 -1.75,0.2623 -1.75,1.70901 0,1.17629 -0.64898,2.07333 -1.5,2.07333 -1.19047,0 -1.5,-1.44445 -1.5,-7 0,-5.29326 0.3373,-7 1.38337,-7 0.76085,0 1.63112,0.94741 1.93393,2.10535 0.30764,1.17642 1.13125,1.90279 1.86663,1.64626 0.72384,-0.2525 1.18219,-1.31241 1.01856,-2.35536 -0.16363,-1.04294 -0.487,-2.45875 -0.71861,-3.14625 -0.23161,-0.6875 -1.69523,-1.25 -3.25249,-1.25 -1.55726,0 -3.37139,0.54 -4.03139,1.2 -0.7228,0.72281 -1.2,4.22222 -1.2,8.8 0,4.57778 0.4772,8.07719 1.2,8.8 0.66,0.66 2.1225,1.19311 3.25,1.18469 1.1275,-0.008 2.60136,-0.3656 3.27524,-0.79372 z m 11.68541,-1.69097 c 0.3451,-1.375 1.07853,-2.5 1.62984,-2.5 0.55132,0 1.51497,1.125 2.14147,2.5 0.62649,1.375 1.79062,2.5 2.58697,2.5 0.99172,0 1.28108,-0.70888 0.91845,-2.25 -0.2912,-1.2375 -1.07672,-5.7375 -1.74561,-10 -1.09547,-6.9809 -1.43703,-7.75 -3.44177,-7.75 -2.00473,0 -2.34629,0.7691 -3.44176,7.75 -0.66889,4.2625 -1.45442,8.7625 -1.74561,10 -0.36911,1.56864 -0.0752,2.25 0.97056,2.25 0.825,0 1.78235,-1.125 2.12746,-2.5 z m 1.19091,-5.33568 c -0.28407,-0.45963 -0.1243,-2.14713 0.35503,-3.75 0.86592,-2.89565 0.87206,-2.8903 0.95746,0.83568 0.0473,2.0625 -0.11249,3.75 -0.35503,3.75 -0.24254,0 -0.6734,-0.37606 -0.95746,-0.83568 z m 22.15466,6.58568 c -0.22575,-0.6875 -1.61325,-1.39239 -3.08334,-1.56642 -2.66087,-0.315 -2.67288,-0.35431 -2.67288,-8.75 0,-6.82985 -0.28524,-8.43358 -1.5,-8.43358 -1.23333,0 -1.5,1.77778 -1.5,10 v 10 h 4.58334 c 3.2189,0 4.46114,-0.37212 4.17288,-1.25 z m 16.24378,-2.75 c 0,-3.33333 0.33334,-4 2,-4 1.33334,0 2,-0.66667 2,-2 0,-1.33333 -0.66666,-2 -2,-2 -1.46666,0 -2,-0.66667 -2,-2.5 0,-2.11111 0.46667,-2.5 3,-2.5 2,0 3,-0.5 3,-1.5 0,-1.11111 -1.16666,-1.5 -4.5,-1.5 h -4.5 v 10 c 0,8.22222 0.26667,10 1.5,10 1.08334,0 1.5,-1.11111 1.5,-4 z m 20.94825,3.05314 c 0.93519,-0.59164 1.58576,-3.1546 1.83643,-7.23468 0.2135,-3.47515 -0.0896,-7.55596 -0.6735,-9.06846 -0.81089,-2.10041 -1.72892,-2.75 -3.88643,-2.75 -1.55361,0 -3.36475,0.54 -4.02475,1.2 -0.7228,0.72281 -1.2,4.22222 -1.2,8.8 0,4.57778 0.4772,8.07719 1.2,8.8 0.66,0.66 2.1225,1.19311 3.25,1.18469 1.1275,-0.008 2.70171,-0.42762 3.49825,-0.93155 z m -4.94825,-9.05314 c 0,-5.55556 0.30953,-7 1.5,-7 1.19048,0 1.5,1.44444 1.5,7 0,5.55555 -0.30952,7 -1.5,7 -1.19047,0 -1.5,-1.44445 -1.5,-7 z m 22.96482,8.06574 c 0.56935,-1.06384 1.03518,-4.69343 1.03518,-8.06574 0,-3.37232 -0.46583,-7.0019 -1.03518,-8.06574 -0.64026,-1.19634 -2.08996,-1.93426 -3.8,-1.93426 -1.52065,0 -3.30482,0.54 -3.96482,1.2 -0.7228,0.72281 -1.2,4.22222 -1.2,8.8 0,4.57778 0.4772,8.07719 1.2,8.8 0.66,0.66 2.44417,1.2 3.96482,1.2 1.71004,0 3.15974,-0.73792 3.8,-1.93426 z m -5.96482,-8.06574 c 0,-5.55556 0.30953,-7 1.5,-7 1.19048,0 1.5,1.44444 1.5,7 0,5.55555 -0.30952,7 -1.5,7 -1.19047,0 -1.5,-1.44445 -1.5,-7 z m 22.4433,7.77749 c 0.95539,-1.364 1.5567,-4.36826 1.5567,-7.77749 0,-3.40923 -0.60131,-6.41349 -1.5567,-7.7775 -1.09615,-1.56497 -2.57541,-2.2225 -5,-2.2225 h -3.4433 v 10 10 h 3.4433 c 2.42459,0 3.90385,-0.65754 5,-2.22251 z m -5.4433,-7.77749 c 0,-6.26805 0.21514,-7.10522 1.75,-6.80963 1.45171,0.27957 1.75,1.44029 1.75,6.80963 0,5.36933 -0.29829,6.53005 -1.75,6.80963 -1.53486,0.29558 -1.75,-0.54158 -1.75,-6.80963 z"
       style="fill:#ffffff;fill-opacity:1"
       id="path1" />
    <path
       d="m 490.06126,223.91975 c 3.27383,-1.47972 7.25831,-4.53556 10.55061,-8.09164 3.31559,-3.58123 6.11451,-7.86817 7.49872,-11.48534 1.21472,-3.17424 2.7126,-8.82336 3.32864,-12.55361 0.61604,-3.73024 0.81048,-8.84677 0.43209,-11.37005 -0.37839,-2.52328 -2.24134,-7.69275 -4.13987,-11.4877 -2.48127,-4.95976 -5.54926,-8.89222 -10.91089,-13.98525 -4.10245,-3.89692 -9.38517,-8.31481 -11.73938,-9.81751 -2.35421,-1.50271 -7.88039,-4.714 -12.28039,-7.1362 -4.4,-2.4222 -13.27362,-6.5561 -19.71916,-9.18643 -6.44554,-2.63034 -13.77592,-5.98778 -16.28974,-7.46097 -2.51381,-1.4732 -6.0746,-3.99909 -7.91285,-5.6131 -2.47083,-2.16941 -4.3508,-2.93259 -7.21026,-2.927 -2.12739,0.004 -6.79299,0.47121 -10.36799,1.03791 -3.575,0.5667 -7.24127,1.25395 -8.14728,1.52723 -1.06768,0.32205 -1.46597,1.19023 -1.13198,2.46742 0.28342,1.08379 -0.0429,2.64314 -0.72516,3.46521 -0.68226,0.82207 -2.28801,1.49467 -3.56833,1.49467 -1.28033,0 -2.74138,-0.73891 -3.2468,-1.64203 -0.50541,-0.90312 -0.71664,-2.41556 -0.46941,-3.36098 0.24723,-0.94541 2.10089,-2.62631 4.11924,-3.73532 2.01835,-1.109 5.91972,-2.51128 8.66972,-3.11617 2.75,-0.60489 9.5,-1.57191 15,-2.14894 5.5,-0.57703 17.425,-2.40852 26.5,-4.06998 9.075,-1.66146 23.7,-4.36273 32.5,-6.002814 8.8,-1.64009 20.50688,-3.87066 26.01529,-4.95684 5.5084,-1.08618 13.13008,-3.10465 16.93706,-4.4855 3.80698,-1.38085 8.88048,-3.65851 11.27445,-5.06147 2.39397,-1.40296 5.87923,-3.89117 7.74501,-5.52934 1.86578,-1.63818 4.3229,-4.90081 5.46026,-7.25029 1.13736,-2.34947 2.06793,-5.74777 2.06793,-7.55176 0,-1.80399 -0.77189,-4.5867 -1.71533,-6.1838 -1.06041,-1.79513 -3.44668,-3.57216 -6.25,-4.65429 -3.58057,-1.38218 -7.37508,-1.72758 -18.03467,-1.64164 -9.40783,0.0758 -16.83435,0.76544 -24.5,2.27498 -6.05,1.19139 -15.95,3.48223 -22,5.09077 -6.05,1.60855 -15.275,4.47748 -20.5,6.37541 -5.225,1.89793 -13.775,5.33119 -19,7.62946 -5.225,2.29826 -13.775,6.47083 -19,9.27236 -5.225,2.80154 -12.875,7.34945 -17,10.10648 -4.125,2.75703 -10.11751,7.50141 -13.31669,10.543074 -3.19917,3.04166 -7.76438,8.47067 -10.1449,12.06446 -2.38052,3.5938 -5.05051,8.27663 -5.93331,10.4063 -0.8828,2.12967 -1.60213,5.72967 -1.59851,8 0.004,2.30698 0.81104,5.34785 1.83024,6.8935 1.00301,1.52109 2.68754,3.41928 3.74341,4.21819 1.05587,0.79892 4.03152,1.46689 6.61255,1.48438 2.67563,0.0181 7.74222,-1.09851 11.78707,-2.5978 3.90185,-1.44628 7.2546,-2.45878 7.45056,-2.25 0.19596,0.20878 -0.12204,4.82156 -0.70666,10.25061 -0.7755,7.20163 -0.75069,12.47494 0.0917,19.5 0.63508,5.29595 1.63255,11.3165 2.2166,13.379 0.58405,2.0625 1.42959,3.75 1.87898,3.75 0.44939,0 1.10506,-2.10107 1.45704,-4.66903 0.35198,-2.56797 1.75158,-6.56588 3.11023,-8.88424 1.35865,-2.31836 4.78358,-6.29506 7.61095,-8.83711 3.81602,-3.43093 6.92552,-5.16404 12.06726,-6.72579 5.29182,-1.60735 8.2099,-1.94355 12.36405,-1.42453 2.9906,0.37365 8.09296,2.00634 11.33856,3.62819 3.24561,1.62185 7.98005,5.17137 10.52097,7.88782 2.54093,2.71645 4.61986,5.38173 4.61986,5.92283 0,0.5411 -0.41474,1.24015 -0.92164,1.55343 -0.5069,0.31329 -3.06029,-1.6892 -5.67418,-4.44997 -2.6139,-2.76077 -7.44603,-6.36554 -10.73808,-8.01059 -4.53154,-2.26444 -7.36098,-2.99101 -11.64768,-2.99101 -3.11418,0 -7.76469,0.71641 -10.33448,1.59203 -2.56979,0.87561 -6.81798,3.52113 -9.44043,5.87894 -2.62244,2.3578 -5.80781,6.36878 -7.07859,8.91327 -1.27079,2.5445 -2.55595,7.00439 -2.85593,9.91089 -0.42376,4.10589 -0.0524,6.43067 1.66527,10.42339 1.21588,2.82638 3.06907,5.9157 4.11821,6.86516 1.04914,0.94946 1.90753,2.10655 1.90753,2.57131 0,0.46475 -1.2375,0.84752 -2.75,0.85059 -1.5125,0.003 -4.42423,0.47055 -6.47051,1.03886 -2.04629,0.56831 -4.40879,2.01592 -5.25,3.21693 -0.84122,1.201 -1.52949,3.69313 -1.52949,5.53806 0,2.38568 0.85705,4.21147 2.9677,6.32211 l 2.96769,2.96769 38.28231,-0.29461 c 37.8604,-0.29137 38.34028,-0.32082 43.54277,-2.67227 z m 33.90828,-19.45759 c 3.15692,-2.8931 3.69989,-4.06491 4.09582,-8.83935 0.41924,-5.05545 0.20083,-5.79523 -2.67957,-9.07582 -1.72481,-1.96445 -4.44631,-4.0285 -6.04778,-4.58677 l -2.91177,-1.01505 -0.60891,5.67611 c -0.3349,3.12187 -1.25092,8.42 -2.03559,11.77364 -0.78468,3.35363 -1.71204,6.84113 -2.06081,7.75 -0.53329,1.38974 0.10071,1.65248 3.98756,1.65248 3.8443,0 5.23382,-0.561 8.26105,-3.33524 z M 398.65938,171.5474 c -0.28878,-3.9875 -0.72059,-7.87012 -0.95957,-8.62805 -0.3179,-1.00818 -1.64847,-1.24122 -4.95735,-0.86827 -2.48756,0.28039 -5.37906,1.28467 -6.42557,2.23175 -1.0465,0.94707 -2.19301,3.04358 -2.5478,4.6589 -0.43041,1.95967 -0.0971,3.7732 1.00162,5.4501 0.90567,1.38223 2.63294,2.91042 3.83838,3.39597 1.20544,0.48556 4.07802,0.91135 6.38352,0.94621 l 4.19182,0.0634 z m 29.14141,-97.699304 c 6.6,-3.18268 16.05,-7.39191 21,-9.35385 4.95,-1.96194 14.34036,-5.17944 20.86746,-7.15001 6.52711,-1.97056 17.54786,-4.73299 24.49056,-6.13873 6.9427,-1.40574 12.80396,-2.73677 13.02504,-2.95784 0.22107,-0.22107 -0.1646,-1.08459 -0.85704,-1.91893 -0.69245,-0.83435 -3.11907,-2.02347 -5.39251,-2.64251 -2.60565,-0.70949 -7.62452,-0.88444 -13.5782,-0.4733 -5.19458,0.35871 -13.29458,1.49534 -18,2.52584 -4.70542,1.0305 -11.62213,3.03113 -15.37046,4.44584 -3.74834,1.41471 -10.0468,4.26884 -13.99659,6.34249 -3.94978,2.07366 -10.78296,6.43509 -15.18484,9.69206 -4.40188,3.25697 -11.04092,8.94177 -14.75342,12.6329 -3.7125,3.69113 -6.75,7.01489 -6.75,7.38615 0,0.37125 2.8125,-0.96264 6.25,-2.96421 3.4375,-2.00157 11.65,-6.24323 18.25,-9.4259 z"
       style="fill:#ffffff;fill-opacity:1"
       id="path1-4" />
    <path
       d="m 716.27338,327.28351 c 2.2639,-1.0281 5.2659,-3.3807 6.6711,-5.228 1.4053,-1.8474 3.4612,-5.6635 4.5687,-8.4803 1.1075,-2.8167 2.5149,-8.7828 3.1276,-13.2579 0.6128,-4.4751 0.8266,-10.9455 0.4752,-14.3786 -0.3514,-3.4331 -1.3196,-8.7832 -2.1516,-11.889 -0.832,-3.1058 -2.8009,-7.2097 -4.3752,-9.1196 -1.5744,-1.91 -4.4086,-4.2064 -6.2983,-5.1031 -1.8897,-0.8967 -5.6178,-1.6205 -8.2847,-1.6084 -2.6669,0.012 -6.6548,0.8423 -8.862,1.845 -2.2072,1.0027 -5.2883,3.495 -6.8469,5.5384 -1.5585,2.0433 -3.7294,6.2635 -4.8241,9.3781 -1.7141,4.8772 -1.9431,7.6787 -1.65,20.1897 0.3076,13.1276 0.589,15.0574 2.9215,20.0356 1.4196,3.0298 4.0044,6.8521 5.7439,8.494 1.7396,1.6418 4.6267,3.5161 6.4158,4.1651 1.7891,0.649 4.603,1.2043 6.253,1.2341 1.65,0.03 4.8522,-0.787 7.116,-1.8151 z m -9.416,-24.2869 c -0.6749,-0.6748 -1.2,-3.9087 -1.2,-7.3892 0,-4.7356 0.4697,-6.7437 2,-8.55 l 2,-2.3608 2,2.3608 c 1.4605,1.724 2,3.8144 2,7.75 0,4.0559 -0.4949,5.884 -2,7.3892 -1.1,1.1 -2.36,2 -2.8,2 -0.44,0 -1.34,-0.54 -2,-1.2 z m -454.6086,24.052 c 0.4212,-0.6815 0.8654,-14.9894 0.9872,-31.7955 0.1217,-16.8061 0.3789,-31.6815 0.5714,-33.0565 0.3398,-2.4278 0.1766,-2.5 -5.65,-2.5 h -6 l -1.1564,26 c -0.636,14.3 -1.2654,29.3071 -1.3986,33.3492 -0.1574,4.7732 0.1678,7.6026 0.9278,8.0722 0.6435,0.3977 3.3712,0.8236 6.0615,0.9463 3.0298,0.1383 5.1829,-0.2483 5.6571,-1.0157 z m 148.8428,-0.823 c 2.2362,-1.084 5.5283,-3.3087 7.3158,-4.9436 1.7875,-1.635 3.2489,-3.7855 3.2476,-4.779 0,-1.1636 -1.8754,-2.785 -5.2659,-4.5564 -2.8949,-1.5125 -5.7063,-2.74 -6.2476,-2.7277 -0.5413,0.012 -2.1091,0.9022 -3.4841,1.9777 -1.375,1.0756 -3.6687,1.9656 -5.097,1.9778 -1.4284,0.012 -3.4993,-0.7653 -4.602,-1.7278 -1.1028,-0.9625 -2.8058,-3.3046 -3.7846,-5.2048 -0.9788,-1.9001 -2.0006,-6.2076 -2.2707,-9.5722 -0.3239,-4.0355 0.064,-8.0274 1.1405,-11.7296 1.0333,-3.5546 2.5942,-6.3695 4.2575,-7.6778 1.4443,-1.1361 3.3528,-2.0556 4.2411,-2.0433 0.8883,0.012 2.7402,0.9022 4.1152,1.9777 1.375,1.0756 2.95,1.9602 3.5,1.9659 0.55,0.01 3.1375,-2.0482 5.75,-4.5643 2.6125,-2.5161 4.75,-5.0303 4.75,-5.587 0,-0.5567 -1.4245,-2.3428 -3.1654,-3.969 -1.7409,-1.6263 -4.7209,-3.6069 -6.6221,-4.4012 -1.9012,-0.7944 -5.589,-1.4444 -8.1951,-1.4444 -3.4388,0 -5.7763,0.7044 -8.5229,2.5683 -2.0814,1.4125 -4.6458,3.55 -5.6986,4.75 -1.0528,1.1999 -3.0632,4.6567 -4.4676,7.6817 -1.4045,3.025 -2.9497,8.611 -3.434,12.4134 -0.559,4.3889 -0.498,9.308 0.1671,13.4713 0.5762,3.6069 2.3837,9.3574 4.0166,12.7788 1.7795,3.7287 4.6462,7.6566 7.1557,9.8046 2.3027,1.971 5.5546,3.9815 7.2265,4.4676 1.6719,0.4862 4.5852,0.9245 6.474,0.9741 1.8889,0.05 5.2639,-0.7967 7.5,-1.8808 z m 55.4227,-0.956 c 2.1078,-1.0753 5.3173,-3.6463 7.1321,-5.7133 1.8148,-2.0669 4.1496,-5.6795 5.1884,-8.0279 1.0388,-2.3484 2.3986,-7.7712 3.0217,-12.0508 0.9538,-6.5502 0.8706,-8.942 -0.5257,-15.1211 -0.9123,-4.0371 -2.8174,-9.6621 -4.2336,-12.5 -1.4161,-2.838 -4.2203,-6.8572 -6.2316,-8.9317 -2.1501,-2.2178 -5.3155,-4.219 -7.6825,-4.8571 -2.2142,-0.5969 -6.427,-0.8036 -9.3619,-0.4593 -2.9348,0.3442 -6.6684,1.3149 -8.2968,2.157 -1.6284,0.8421 -3.8797,2.2961 -5.0027,3.2311 -1.1231,0.9351 -3.3415,3.5659 -4.9298,5.8463 -1.5883,2.2804 -3.5757,6.1723 -4.4164,8.6486 -0.8407,2.4764 -1.7936,6.4606 -2.1175,8.8538 -0.3239,2.3933 -0.1412,7.5014 0.4061,11.3514 0.5473,3.85 2.0041,9.6734 3.2374,12.9409 1.4661,3.8842 3.8372,7.5326 6.8491,10.5386 2.5337,2.5287 6.1818,5.1236 8.1068,5.7665 1.925,0.643 6.093,0.9694 9.2623,0.7255 3.1692,-0.2438 7.4868,-1.3232 9.5946,-2.3985 z m -16.3569,-3.7909 c -1.1,-0.2672 -3.4691,-1.5929 -5.2646,-2.946 -1.7955,-1.353 -4.4885,-4.7947 -5.9843,-7.6481 -2.5167,-4.8006 -2.7209,-6.0839 -2.7354,-17.188 -0.014,-10.5856 0.2523,-12.5018 2.2586,-16.2578 1.2508,-2.3418 4.2112,-6.2793 6.5785,-8.75 4.0241,-4.1997 4.6442,-4.4922 9.5254,-4.4922 2.8716,0 6.4959,0.6592 8.054,1.465 1.558,0.8057 4.1943,3.5204 5.8584,6.0327 1.6641,2.5122 3.5745,6.8561 4.2455,9.6529 0.7426,3.0957 1.0301,8.8535 0.7347,14.7173 -0.291,5.7785 -1.1627,11.2324 -2.1787,13.6321 -0.9314,2.2 -3.1132,5.4669 -4.8485,7.2598 -1.7352,1.7929 -4.7499,3.7029 -6.6993,4.2444 -1.9494,0.5416 -4.4443,0.935 -5.5443,0.8742 -1.1,-0.061 -2.9,-0.329 -4,-0.5963 z m 146.0558,4.8318 c 2.2307,-1.0132 5.6637,-3.7208 7.6291,-6.0168 2.1884,-2.5567 4.1783,-6.3881 5.1345,-9.8858 0.8587,-3.1412 1.8258,-7.7363 2.1491,-10.2113 0.3233,-2.475 0.2377,-5.0111 -0.1903,-5.6358 -0.4281,-0.6248 -5.7282,-1.8113 -11.7782,-2.6367 -7.466,-1.0186 -11.4017,-1.1766 -12.25,-0.4917 -0.6875,0.555 -1.25,2.2109 -1.25,3.6799 0,2.1502 0.6334,2.8572 3.25,3.6275 2.6876,0.7913 3.1963,1.3894 2.9398,3.4568 -0.1706,1.375 -1.233,3.2875 -2.3608,4.25 -1.1278,0.9625 -2.4009,1.75 -2.829,1.75 -0.4282,0 -1.8408,-0.8612 -3.1393,-1.9137 -2.1649,-1.7549 -2.3607,-2.6616 -2.3607,-10.9277 0,-7.6547 0.3218,-9.4397 2.1341,-11.8363 1.2479,-1.6503 2.869,-2.6856 3.9038,-2.4931 0.9733,0.181 2.5281,1.2657 3.4551,2.4105 l 1.6853,2.0814 6.4108,-3.8353 c 3.526,-2.1094 7.4247,-4.4429 8.6638,-5.1855 2.1681,-1.2994 2.1958,-1.4907 0.7357,-5.0753 -0.8345,-2.0487 -3.4509,-5.582 -5.8142,-7.8516 -3.1529,-3.028 -5.6414,-4.415 -9.3468,-5.2097 -2.7775,-0.5957 -6.7999,-0.812 -8.9388,-0.4807 -2.1389,0.3312 -5.5328,1.425 -7.5421,2.4306 -2.0093,1.0056 -5.056,3.5289 -6.7703,5.6074 -1.7144,2.0785 -4.0919,6.254 -5.2835,9.279 -1.7956,4.5586 -2.1772,7.6396 -2.2297,18 -0.062,12.2016 0.016,12.6632 3.2785,19.3353 2.4718,5.0558 4.5066,7.6592 7.816,10 2.4608,1.7406 5.907,3.693 7.6582,4.3386 1.7512,0.6457 4.9841,1.1983 7.1841,1.2281 2.2,0.03 5.8251,-0.7749 8.0558,-1.7881 z m 90.8631,0.8005 c 0.2317,-0.2317 0.5378,-15.4947 0.6802,-33.9178 l 0.2589,-33.4966 -5.3344,-0.3076 c -3.5891,-0.207 -5.6057,0.1201 -6.1637,1 -0.4561,0.7192 -0.8332,7.8326 -0.8379,15.8076 0,7.975 -0.5271,22.533 -1.1608,32.3511 -0.9737,15.0864 -0.936,17.9972 0.2433,18.7943 0.7675,0.5187 3.7574,0.7738 6.6443,0.5667 2.8869,-0.207 5.4384,-0.566 5.6701,-0.7977 z m -455.1118,-0.9829 c 2.3061,-0.5877 5.1393,-1.8438 6.296,-2.7914 1.1568,-0.9476 2.6193,-2.6872 3.25,-3.8657 0.6308,-1.1786 1.1469,-3.8771 1.1469,-5.9968 0,-2.1196 -1.0125,-5.8552 -2.25,-8.3013 -1.2375,-2.4461 -4.1374,-5.8706 -6.4441,-7.6099 -2.3067,-1.7393 -4.7198,-3.3377 -5.3625,-3.5519 -0.6685,-0.2228 0.3388,-1.8968 2.3545,-3.9124 2.0893,-2.0893 4.0101,-5.3295 4.7203,-7.9625 0.6586,-2.4418 0.9479,-6.5529 0.6431,-9.1358 -0.3049,-2.5829 -1.2611,-6.0628 -2.1248,-7.7331 -0.8637,-1.6703 -3.0253,-3.8319 -4.8035,-4.8038 -2.5191,-1.3767 -5.5886,-1.7669 -13.9002,-1.7669 -5.8669,0 -10.9589,0.2921 -11.3156,0.649 -0.3567,0.3569 -0.7951,3.0569 -0.9742,6 -0.1792,2.9431 -0.3884,17.051 -0.4651,31.351 -0.077,14.3 -0.1256,27.0125 -0.1087,28.25 0.03,2.2123 0.2414,2.25 12.5879,2.25 6.9065,0 14.444,-0.4808 16.75,-1.0685 z m -15.9469,-2.1025 c -0.4706,-0.7309 -1.0154,-7.1102 -1.2108,-14.1761 -0.2153,-7.7847 0.042,-13.2439 0.6517,-13.8541 0.5822,-0.5821 2.6981,-0.7213 5.0156,-0.3297 2.2047,0.3724 5.7868,1.8303 7.9603,3.2396 2.1736,1.4093 4.6466,3.7389 5.4957,5.1769 0.8491,1.4379 1.8615,4.3094 2.2499,6.3811 0.4384,2.3384 0.2293,4.9179 -0.5514,6.8027 -0.7339,1.7719 -2.7594,3.7974 -4.8644,4.8645 -1.9838,1.0056 -5.9208,2.1425 -8.749,2.5263 -3.7982,0.5154 -5.3658,0.3505 -5.9976,-0.6312 z m -0.3602,-47.9649 v -15.1359 l 4.5851,0.6284 c 2.5218,0.3457 5.8856,1.5545 7.475,2.6863 1.8247,1.2992 3.3025,3.5902 4.0094,6.2154 0.6158,2.2867 0.8416,5.8958 0.5019,8.0201 -0.3397,2.1243 -1.351,4.9817 -2.2473,6.3496 -0.8963,1.368 -3.343,3.3613 -5.4371,4.4296 -2.094,1.0683 -4.9503,1.9424 -6.3472,1.9424 h -2.5398 z m 59.5279,46.742 c 0.7344,-2.1416 2.0718,-7.2041 2.9719,-11.25 0.9028,-4.0578 2.1665,-7.359 2.8184,-7.3626 0.6499,0 5.3225,-0.1884 10.3835,-0.4107 6.2214,-0.2732 9.5087,-0.028 10.1496,0.7566 0.5214,0.6383 2.1503,5.2106 3.6197,10.1606 1.4694,4.95 3.0224,9.675 3.4512,10.5 0.4287,0.825 2.1966,1.641 3.9286,1.8134 1.8292,0.182 3.1492,-0.152 3.1492,-0.7968 0,-0.6106 -1.6248,-6.1516 -3.6106,-12.3133 -1.9859,-6.1618 -4.7231,-14.073 -6.0827,-17.5805 -1.3597,-3.5075 -4.0531,-11.3825 -5.9854,-17.5 -1.9323,-6.1175 -4.2712,-13.1442 -5.1976,-15.6149 -0.9263,-2.4707 -2.3972,-4.6295 -3.2686,-4.7973 -1.2045,-0.2319 -2.4393,2.284 -5.1495,10.4922 -1.9609,5.9385 -5.4441,17.7722 -7.7406,26.2972 -2.2964,8.525 -5.0174,18.65 -6.0466,22.5 -1.0293,3.85 -1.882,7.5955 -1.8949,8.3233 -0.013,0.7279 0.6948,1.1779 1.5727,1 0.878,-0.1778 2.1972,-2.0755 2.9317,-4.2172 z m 7.7049,-26.4622 c -0.8347,-0.5159 -0.5928,-2.7343 0.8917,-8.1759 1.1205,-4.1074 2.7621,-10.2805 3.648,-13.718 0.8859,-3.4375 1.897,-6.25 2.2468,-6.25 0.3498,0 2.5155,6.1481 4.8127,13.6624 2.2971,7.5143 4.0621,13.752 3.9223,13.8617 -0.1399,0.1096 -3.4317,0.4532 -7.3151,0.7636 -3.8835,0.3103 -7.5763,0.2456 -8.2064,-0.1438 z m 50.8922,29.8561 c 1.7561,0 1.875,-1.0266 1.875,-16.2 0,-10.1904 0.351,-15.8476 0.9463,-15.25 0.5205,0.5225 2.5494,3.875 4.5087,7.45 1.9593,3.575 5.3643,10.1623 7.5666,14.6383 2.2023,4.4761 4.6341,8.6611 5.404,9.3 0.8352,0.6932 3.9557,1.0407 7.737,0.8617 l 6.3374,-0.3 -0.2243,-35 -0.2243,-35 h -7.9445 c -4.3694,0 -8.2905,0.347 -8.7134,0.7711 -0.4229,0.424 -0.9664,3.5003 -1.2077,6.8361 l -0.4387,6.0651 -3.7706,-5.9635 c -2.0738,-3.2799 -4.2827,-6.28 -4.9086,-6.6668 -0.626,-0.3869 -3.8442,-0.6904 -7.1517,-0.6746 -3.3075,0.016 -6.8918,0.3075 -7.965,0.6481 -1.8834,0.5978 -1.9512,1.7741 -1.9512,33.8519 0,25.244 0.3004,33.5371 1.25,34.4991 0.7421,0.7519 2.418,1.0363 4.125,0.7 1.5812,-0.3116 3.7187,-0.5665 4.75,-0.5665 z m 167.7142,0.014 3.3392,-0.014 -0.1927,-12.25 c -0.106,-6.7375 -0.1359,-14.275 -0.066,-16.75 l 0.1262,-4.5 3.5589,6.5 c 1.9574,3.575 5.7533,10.8168 8.4354,16.0928 2.682,5.276 5.531,10.136 6.331,10.8 0.8964,0.7438 3.887,1.092 7.792,0.9072 l 6.3373,-0.3 -0.042,-4.75 c -0.023,-2.6125 -0.1354,-18.475 -0.25,-35.25 l -0.2084,-30.5 h -6.4349 c -3.5392,0 -7.5672,0.4305 -8.9511,0.9567 -2.2692,0.8627 -2.5456,1.5746 -2.8151,7.25 l -0.2989,6.2933 -3.2563,-5.6328 c -1.791,-3.0981 -3.9001,-6.1671 -4.6868,-6.82 -0.8193,-0.6799 -4.5136,-1.1774 -8.6465,-1.1644 -3.9688,0.013 -7.6439,0.4508 -8.1669,0.9738 -0.5592,0.5591 -0.9724,14.0708 -1.003,32.7972 -0.029,17.5154 0.2864,32.8999 0.7001,34.1876 0.5754,1.7911 1.2584,2.2057 2.9058,1.7637 1.1845,-0.3178 3.6563,-0.5839 5.4929,-0.5914 z m 52.1653,-21.7637 c 0,-12.5125 0.2923,-27.7431 0.644,-33.8457 0.6101,-10.5883 0.5464,-11.12 -1.3939,-11.6274 -1.1183,-0.2925 -2.5723,-0.1986 -3.2311,0.2085 -0.8732,0.5397 -1.3513,9.8549 -1.7644,34.3775 l -0.5666,33.6371 h 3.1537 3.1538 z m 115.8192,13.6549 c -0.178,-5.0023 -0.7737,-9.3878 -1.3237,-9.7456 -0.55,-0.3578 -8.875,-0.7357 -18.5,-0.8397 -9.625,-0.104 -18.3023,-0.2184 -19.2828,-0.2543 -1.6616,-0.061 -1.7753,-1.6791 -1.6744,-23.8153 l 0.1084,-23.75 -3.4149,-0.3008 -3.4148,-0.3007 -0.6583,21.8007 c -0.3621,11.9905 -0.6594,27.3133 -0.6608,34.0508 v 12.25 h 24.5738 24.5738 z"
       style="fill:#db2347;fill-opacity:1"
       id="path1-16" />
  </g>
</svg>
